<svg xmlns="http://www.w3.org/2000/svg" width="45" height="45" fill="none" viewBox="0 0 45 45">
  <path stroke="#131B5A" stroke-linecap="round" stroke-linejoin="round" stroke-width="2.25" d="M22.934 29.324a1 1 0 00-.94 0l-5.514 2.929a1 1 0 01-1.455-1.05l1.059-6.234a1 1 0 00-.285-.88l-4.495-4.42a1 1 0 01.556-1.703l6.184-.906a1 1 0 00.753-.55l2.76-5.649a1 1 0 011.797 0l2.76 5.649a1 1 0 00.753.55l6.184.906a1 1 0 01.556 1.702l-4.495 4.42a1 1 0 00-.285.881l1.058 6.23a1 1 0 01-1.456 1.05l-5.495-2.925z"/>
</svg>
